<?xml version="1.0" encoding="UTF-8" standalone="no"?>
<!DOCTYPE svg PUBLIC "-//W3C//DTD SVG 1.1//EN" "http://www.w3.org/Graphics/SVG/1.1/DTD/svg11.dtd">
<svg width="100%" height="100%" viewBox="0 0 1695 2781" version="1.1" xmlns="http://www.w3.org/2000/svg" xmlns:xlink="http://www.w3.org/1999/xlink" xml:space="preserve" xmlns:serif="http://www.serif.com/" style="fill-rule:evenodd;clip-rule:evenodd;stroke-linejoin:round;stroke-miterlimit:2;">
    <g transform="matrix(1,0,0,1,-1402.770417,-859.947083)">
        <g id="Page-2" serif:id="Page 2" transform="matrix(4.166667,0,0,4.166667,0,0)">
            <rect x="0" y="0" width="1080" height="1080" style="fill:none;"/>
            <g id="Camada-1" serif:id="Camada 1">
                <g transform="matrix(-1,0,0,1,897.813,366.985)">
                    <rect x="447.819" y="311.742" width="2.175" height="89.531" style="fill:rgb(4,3,3);"/>
                </g>
                <g transform="matrix(1,0,0,1,562.3712,676.0405)">
                    <path d="M0,94.905L-89.655,5.25L-89.655,91.948L-91.83,91.948L-91.83,0L-2.175,89.655L-2.175,2.625L0,2.625L0,94.905Z" style="fill:rgb(4,3,3);fill-rule:nonzero;"/>
                </g>
                <g transform="matrix(1,0,0,1,628.436,677.9635)">
                    <path d="M0,91.059C-25.098,91.059 -45.518,70.634 -45.518,45.528C-45.518,20.424 -25.098,0 0,0L0,2.175C-23.899,2.175 -43.343,21.623 -43.343,45.528C-43.343,69.435 -23.899,88.884 0,88.884L0,91.059Z" style="fill:rgb(4,3,3);fill-rule:nonzero;"/>
                </g>
                <g transform="matrix(1,0,0,1,695.3843,766.8472)">
                    <path d="M0,-86.709C-23.899,-86.709 -43.342,-67.261 -43.342,-43.355C-43.342,-19.449 -23.899,0.001 0,0.001C23.899,0.001 43.343,-19.449 43.343,-43.355C43.343,-67.261 23.899,-86.709 0,-86.709M0,2.175C-25.098,2.175 -45.517,-18.25 -45.517,-43.355C-45.517,-68.46 -25.098,-88.884 0,-88.884C25.098,-88.884 45.518,-68.46 45.518,-43.355C45.518,-18.25 25.098,2.175 0,2.175" style="fill:rgb(4,3,3);fill-rule:nonzero;"/>
                </g>
                <g transform="matrix(1,0,0,1,427.8943,677.4317)">
                    <path d="M0,92.659L-91.122,1.537L-89.585,0L-2.175,87.409L-2.175,0.769L0,0.769L0,92.659Z" style="fill:rgb(4,3,3);fill-rule:nonzero;"/>
                </g>
                <g transform="matrix(1,0,0,1,342.0069,820.9408)">
                    <path d="M0,11.593C3.45,11.593 5.702,9.365 5.702,6.012L5.702,5.58C5.702,2.251 3.45,-0.025 0,-0.025L-2.252,-0.025L-2.252,11.593L0,11.593ZM-5.342,-2.588L0.432,-2.588C5.39,-2.588 8.792,0.861 8.792,5.796C8.792,10.73 5.342,14.181 0.432,14.181L-5.342,14.181L-5.342,-2.588Z" style="fill:rgb(4,3,3);fill-rule:nonzero;"/>
                </g>
                <g transform="matrix(1,0,0,1,354.0085,818.3525)">
                    <path d="M0,16.769L0,0L10.732,0L10.732,2.564L3.066,2.564L3.066,6.851L10.014,6.851L10.014,9.415L3.066,9.415L3.066,14.181L10.732,14.181L10.732,16.769L0,16.769Z" style="fill:rgb(4,3,3);fill-rule:nonzero;"/>
                </g>
                <g transform="matrix(1,0,0,1,380.6727,829.9235)">
                    <path d="M0,-6.373L-3.09,-6.373C-3.114,-8.433 -4.6,-9.798 -6.709,-9.798C-8.673,-9.798 -10.014,-8.601 -10.014,-7.188C-10.014,-5.558 -8.146,-4.936 -5.678,-4.265C-2.924,-3.499 0.119,-2.636 0.119,0.526C0.119,3.473 -2.54,5.438 -6.493,5.438C-10.518,5.438 -13.056,3.401 -13.32,0L-10.23,0C-10.206,2.06 -8.601,3.425 -6.253,3.425C-4.241,3.425 -2.948,2.443 -2.948,0.934C-2.948,-0.935 -4.935,-1.581 -7.475,-2.3C-10.182,-3.067 -13.08,-3.929 -13.08,-6.924C-13.08,-9.774 -10.47,-11.811 -6.661,-11.811C-2.852,-11.811 -0.264,-9.75 0,-6.373" style="fill:rgb(4,3,3);fill-rule:nonzero;"/>
                </g>
                <g transform="matrix(1,0,0,1,0,573.473)">
                    <rect x="383.642" y="244.879" width="3.066" height="16.769" style="fill:rgb(4,3,3);"/>
                </g>
                <g transform="matrix(1,0,0,1,389.9187,826.7129)">
                    <path d="M0,0.048C0,-5.054 3.401,-8.601 8.193,-8.601C12.36,-8.601 15.116,-6.373 16.145,-2.922L12.768,-2.922C12.218,-5.198 10.468,-6.587 8.265,-6.587C5.246,-6.587 3.161,-4.001 3.161,0.12C3.161,3.929 4.958,6.635 7.666,6.635C9.151,6.635 10.444,5.821 10.444,4.384C10.444,3.114 9.462,2.012 7.522,2.012L7.522,-0.551L16.145,-0.551L16.145,8.409L13.079,8.409L13.079,2.012L10.612,2.012L10.612,2.492C10.732,2.54 11.834,3.114 11.834,4.792C11.834,7.067 9.846,8.649 7.042,8.649C2.85,8.649 0,5.174 0,0.048" style="fill:rgb(4,3,3);fill-rule:nonzero;"/>
                </g>
                <g transform="matrix(1,0,0,1,409.5132,818.3525)">
                    <path d="M0,16.769L0,0L4.337,0L10.708,12.169L11.188,12.169L11.188,0L14.255,0L14.255,16.769L9.942,16.769L3.546,4.575L3.066,4.575L3.066,16.769L0,16.769Z" style="fill:rgb(4,3,3);fill-rule:nonzero;"/>
                </g>
                <g transform="matrix(1,0,0,1,0,576.277)">
                    <rect x="426.882" y="250.58" width="9.918" height="2.563" style="fill:rgb(4,3,3);"/>
                </g>
                <g transform="matrix(1,0,0,1,443.1247,818.3525)">
                    <path d="M0,16.769L0,2.564L-5.079,2.564L-5.079,0L8.145,0L8.145,2.564L3.066,2.564L3.066,16.769L0,16.769Z" style="fill:rgb(4,3,3);fill-rule:nonzero;"/>
                </g>
                <g transform="matrix(1,0,0,1,466.5053,826.4738)">
                    <path d="M0,0.479L0,-0.001C0,-3.786 -2.061,-6.348 -5.222,-6.348C-8.385,-6.348 -10.47,-3.786 -10.47,-0.001L-10.47,0.479C-10.47,4.288 -8.385,6.827 -5.222,6.827C-2.061,6.827 0,4.288 0,0.479M3.162,0.239C3.162,5.341 -0.312,8.84 -5.246,8.84C-10.182,8.84 -13.631,5.317 -13.631,0.239C-13.631,-4.839 -10.158,-8.361 -5.198,-8.361C-0.264,-8.361 3.162,-4.815 3.162,0.239" style="fill:rgb(4,3,3);fill-rule:nonzero;"/>
                </g>
                <g transform="matrix(1,0,0,1,0,576.277)">
                    <rect x="472.686" y="250.58" width="9.918" height="2.563" style="fill:rgb(4,3,3);"/>
                </g>
                <g transform="matrix(1,0,0,1,488.8063,827.5513)">
                    <path d="M0,-1.629L2.732,-1.629C5.438,-1.629 6.349,-2.684 6.349,-4.145C6.349,-5.798 5.199,-6.635 2.732,-6.635L0,-6.635L0,-1.629ZM-3.114,7.57L-3.114,-9.199L3.018,-9.199C7.163,-9.199 9.463,-7.355 9.463,-4.145C9.463,-0.91 7.163,0.935 2.994,0.935L0,0.935L0,7.57L-3.114,7.57Z" style="fill:rgb(4,3,3);fill-rule:nonzero;"/>
                </g>
                <g transform="matrix(1,0,0,1,504.0423,827.5513)">
                    <path d="M0,-1.629L3.546,-1.629C5.223,-1.629 6.373,-2.732 6.373,-4.193C6.373,-5.869 4.864,-6.635 2.612,-6.635L0,-6.635L0,-1.629ZM-3.066,-9.199L3.857,-9.199C7.019,-9.199 9.439,-7.426 9.439,-4.791C9.439,-2.516 7.69,-0.766 5.318,-0.598L5.318,-0.12C7.714,-0.12 9.223,1.437 9.415,3.929L9.679,7.57L6.613,7.57L6.349,3.857C6.205,1.821 5.39,0.935 3.642,0.935L0,0.935L0,7.57L-3.066,7.57L-3.066,-9.199Z" style="fill:rgb(4,3,3);fill-rule:nonzero;"/>
                </g>
                <g transform="matrix(1,0,0,1,530.2745,826.4738)">
                    <path d="M0,0.479L0,-0.001C0,-3.786 -2.061,-6.348 -5.222,-6.348C-8.385,-6.348 -10.47,-3.786 -10.47,-0.001L-10.47,0.479C-10.47,4.288 -8.385,6.827 -5.222,6.827C-2.061,6.827 0,4.288 0,0.479M3.162,0.239C3.162,5.341 -0.312,8.84 -5.246,8.84C-10.182,8.84 -13.631,5.317 -13.631,0.239C-13.631,-4.839 -10.158,-8.361 -5.198,-8.361C-0.264,-8.361 3.162,-4.815 3.162,0.239" style="fill:rgb(4,3,3);fill-rule:nonzero;"/>
                </g>
                <g transform="matrix(1,0,0,1,541.9883,820.9408)">
                    <path d="M0,11.593C3.45,11.593 5.702,9.365 5.702,6.012L5.702,5.58C5.702,2.251 3.45,-0.025 0,-0.025L-2.252,-0.025L-2.252,11.593L0,11.593ZM-5.342,-2.588L0.432,-2.588C5.39,-2.588 8.792,0.861 8.792,5.796C8.792,10.73 5.342,14.181 0.432,14.181L-5.342,14.181L-5.342,-2.588Z" style="fill:rgb(4,3,3);fill-rule:nonzero;"/>
                </g>
                <g transform="matrix(1,0,0,1,553.8712,824.7497)">
                    <path d="M0,4.263L0,-6.397L3.066,-6.397L3.066,3.927C3.066,7.041 4.264,8.671 6.779,8.671C9.246,8.671 10.492,7.041 10.492,3.927L10.492,-6.397L13.559,-6.397L13.559,4.263C13.559,8.288 11.043,10.66 6.779,10.66C2.539,10.66 0,8.288 0,4.263" style="fill:rgb(4,3,3);fill-rule:nonzero;"/>
                </g>
                <g transform="matrix(1,0,0,1,586.9056,829.6835)">
                    <path d="M0,-5.893L-3.401,-5.893C-3.953,-8.169 -5.845,-9.558 -8.025,-9.558C-10.995,-9.558 -13.224,-6.972 -13.224,-3.115L-13.224,-2.612C-13.224,1.269 -10.995,3.665 -7.977,3.665C-5.869,3.665 -4.025,2.444 -3.449,0.144L-0.048,0.144C-1.173,3.641 -4.144,5.678 -7.929,5.678C-12.936,5.678 -16.385,2.3 -16.385,-2.851C-16.385,-7.977 -12.912,-11.571 -7.953,-11.571C-4.049,-11.571 -1.077,-9.343 0,-5.893" style="fill:rgb(4,3,3);fill-rule:nonzero;"/>
                </g>
                <g transform="matrix(1,0,0,1,593.5423,818.3525)">
                    <path d="M0,16.769L0,2.564L-5.079,2.564L-5.079,0L8.145,0L8.145,2.564L3.066,2.564L3.066,16.769L0,16.769Z" style="fill:rgb(4,3,3);fill-rule:nonzero;"/>
                </g>
                <g transform="matrix(1,0,0,1,0,573.473)">
                    <rect x="604.344" y="244.879" width="3.066" height="16.769" style="fill:rgb(4,3,3);"/>
                </g>
                <g transform="matrix(1,0,0,1,624.253,826.4738)">
                    <path d="M0,0.479L0,-0.001C0,-3.786 -2.061,-6.348 -5.222,-6.348C-8.385,-6.348 -10.47,-3.786 -10.47,-0.001L-10.47,0.479C-10.47,4.288 -8.385,6.827 -5.222,6.827C-2.061,6.827 0,4.288 0,0.479M3.162,0.239C3.162,5.341 -0.312,8.84 -5.246,8.84C-10.182,8.84 -13.631,5.317 -13.631,0.239C-13.631,-4.839 -10.158,-8.361 -5.198,-8.361C-0.264,-8.361 3.162,-4.815 3.162,0.239" style="fill:rgb(4,3,3);fill-rule:nonzero;"/>
                </g>
                <g transform="matrix(1,0,0,1,630.6245,818.3525)">
                    <path d="M0,16.769L0,0L4.337,0L10.708,12.169L11.188,12.169L11.188,0L14.255,0L14.255,16.769L9.942,16.769L3.546,4.575L3.066,4.575L3.066,16.769L0,16.769Z" style="fill:rgb(4,3,3);fill-rule:nonzero;"/>
                </g>
                <g transform="matrix(1,0,0,1,668.1411,829.9235)">
                    <path d="M0,-6.373L-3.09,-6.373C-3.114,-8.433 -4.6,-9.798 -6.709,-9.798C-8.672,-9.798 -10.014,-8.601 -10.014,-7.188C-10.014,-5.558 -8.146,-4.936 -5.678,-4.265C-2.924,-3.499 0.119,-2.636 0.119,0.526C0.119,3.473 -2.54,5.438 -6.493,5.438C-10.518,5.438 -13.056,3.401 -13.32,0L-10.23,0C-10.206,2.06 -8.601,3.425 -6.253,3.425C-4.241,3.425 -2.948,2.443 -2.948,0.934C-2.948,-0.935 -4.935,-1.581 -7.475,-2.3C-10.182,-3.067 -13.08,-3.929 -13.08,-6.924C-13.08,-9.774 -10.47,-11.811 -6.661,-11.811C-2.852,-11.811 -0.264,-9.75 0,-6.373" style="fill:rgb(4,3,3);fill-rule:nonzero;"/>
                </g>
                <g transform="matrix(1,0,0,1,675.0645,818.3525)">
                    <path d="M0,16.769L0,2.564L-5.079,2.564L-5.079,0L8.145,0L8.145,2.564L3.066,2.564L3.066,16.769L0,16.769Z" style="fill:rgb(4,3,3);fill-rule:nonzero;"/>
                </g>
                <g transform="matrix(1,0,0,1,685.7476,824.7497)">
                    <path d="M0,4.263L0,-6.397L3.066,-6.397L3.066,3.927C3.066,7.041 4.264,8.671 6.779,8.671C9.246,8.671 10.492,7.041 10.492,3.927L10.492,-6.397L13.559,-6.397L13.559,4.263C13.559,8.288 11.043,10.66 6.779,10.66C2.539,10.66 0,8.288 0,4.263" style="fill:rgb(4,3,3);fill-rule:nonzero;"/>
                </g>
                <g transform="matrix(1,0,0,1,707.8338,820.9408)">
                    <path d="M0,11.593C3.45,11.593 5.702,9.365 5.702,6.012L5.702,5.58C5.702,2.251 3.45,-0.025 0,-0.025L-2.252,-0.025L-2.252,11.593L0,11.593ZM-5.342,-2.588L0.432,-2.588C5.39,-2.588 8.792,0.861 8.792,5.796C8.792,10.73 5.342,14.181 0.432,14.181L-5.342,14.181L-5.342,-2.588Z" style="fill:rgb(4,3,3);fill-rule:nonzero;"/>
                </g>
                <g transform="matrix(1,0,0,1,0,573.473)">
                    <rect x="719.835" y="244.879" width="3.066" height="16.769" style="fill:rgb(4,3,3);"/>
                </g>
                <g transform="matrix(1,0,0,1,739.7442,826.4738)">
                    <path d="M0,0.479L0,-0.001C0,-3.786 -2.061,-6.348 -5.222,-6.348C-8.385,-6.348 -10.47,-3.786 -10.47,-0.001L-10.47,0.479C-10.47,4.288 -8.385,6.827 -5.222,6.827C-2.061,6.827 0,4.288 0,0.479M3.162,0.239C3.162,5.341 -0.312,8.84 -5.246,8.84C-10.182,8.84 -13.631,5.317 -13.631,0.239C-13.631,-4.839 -10.158,-8.361 -5.198,-8.361C-0.264,-8.361 3.162,-4.815 3.162,0.239" style="fill:rgb(4,3,3);fill-rule:nonzero;"/>
                </g>
                <g transform="matrix(1,0,0,1,382.6941,864.9662)">
                    <path d="M0,-0.546L3.865,-0.546C6.963,-0.546 8.004,-1.984 8.004,-4.015C8.004,-6.319 6.691,-7.459 3.865,-7.459L0,-7.459L0,-0.546ZM-1.784,8.399L-1.784,-8.945L3.865,-8.945C7.583,-8.945 9.788,-7.113 9.788,-4.015C9.788,-0.868 7.583,0.94 3.841,0.94L0,0.94L0,8.399L-1.784,8.399Z" style="fill:rgb(4,3,3);fill-rule:nonzero;"/>
                </g>
                <g transform="matrix(1,0,0,1,396.5637,856.0218)">
                    <path d="M0,17.343L0,0L10.282,0L10.282,1.486L1.735,1.486L1.735,7.68L9.54,7.68L9.54,9.166L1.735,9.166L1.735,15.857L10.282,15.857L10.282,17.343L0,17.343Z" style="fill:rgb(4,3,3);fill-rule:nonzero;"/>
                </g>
                <g transform="matrix(1,0,0,1,412.4151,864.9662)">
                    <path d="M0,-0.546L4.806,-0.546C6.713,-0.546 8.027,-2.058 8.027,-4.089C8.027,-6.393 6.317,-7.459 3.766,-7.459L0,-7.459L0,-0.546ZM-1.735,-8.945L4.286,-8.945C7.407,-8.945 9.761,-7.113 9.761,-4.312C9.761,-2.032 8.251,-0.224 6.219,-0.05L6.219,0.446C8.251,0.446 9.539,2.056 9.737,4.633L10.009,8.399L8.275,8.399L8.003,4.211C7.853,1.932 6.937,0.94 4.955,0.94L0,0.94L0,8.399L-1.735,8.399L-1.735,-8.945Z" style="fill:rgb(4,3,3);fill-rule:nonzero;"/>
                </g>
                <g transform="matrix(1,0,0,1,426.8289,856.0218)">
                    <path d="M0,17.343L0,0L10.035,0L10.035,1.486L1.735,1.486L1.735,7.68L9.292,7.68L9.292,9.166L1.735,9.166L1.735,17.343L0,17.343Z" style="fill:rgb(4,3,3);fill-rule:nonzero;"/>
                </g>
                <g transform="matrix(1,0,0,1,440.6986,856.0218)">
                    <path d="M0,17.343L0,0L10.282,0L10.282,1.486L1.735,1.486L1.735,7.68L9.54,7.68L9.54,9.166L1.735,9.166L1.735,15.857L10.282,15.857L10.282,17.343L0,17.343Z" style="fill:rgb(4,3,3);fill-rule:nonzero;"/>
                </g>
                <g transform="matrix(1,0,0,1,470.5013,868.3856)">
                    <path d="M0,-7.409L-1.809,-7.409C-2.85,-9.664 -5.005,-11.026 -7.806,-11.026C-11.87,-11.026 -14.545,-8.177 -14.545,-3.965L-14.545,-3.445C-14.545,0.792 -11.87,3.617 -7.781,3.617C-4.931,3.617 -2.751,2.204 -1.735,-0.15L0.074,-0.15C-1.14,3.146 -4.065,5.203 -7.806,5.203C-12.81,5.203 -16.305,1.56 -16.305,-3.693C-16.305,-8.946 -12.786,-12.612 -7.806,-12.612C-4.089,-12.612 -1.24,-10.606 0,-7.409" style="fill:rgb(4,3,3);fill-rule:nonzero;"/>
                </g>
                <g transform="matrix(1,0,0,1,478.3726,856.0218)">
                    <path d="M0,17.343L0,1.486L-5.451,1.486L-5.451,0L7.185,0L7.185,1.486L1.734,1.486L1.734,17.343L0,17.343Z" style="fill:rgb(4,3,3);fill-rule:nonzero;"/>
                </g>
                <g transform="matrix(1,0,0,1,0,649.385)">
                    <rect x="489.391" y="206.636" width="1.735" height="17.343" style="fill:rgb(4,3,3);"/>
                </g>
                <g transform="matrix(1,0,0,1,510.4231,864.4212)">
                    <path d="M0,0.519L0,-0.001C0,-4.213 -2.65,-7.062 -6.715,-7.062C-10.753,-7.062 -13.454,-4.213 -13.454,-0.001L-13.454,0.519C-13.454,4.756 -10.753,7.582 -6.715,7.582C-2.65,7.582 0,4.756 0,0.519M1.76,0.271C1.76,5.524 -1.758,9.167 -6.763,9.167C-11.719,9.167 -15.214,5.524 -15.214,0.271C-15.214,-4.982 -11.694,-8.648 -6.715,-8.648C-1.71,-8.648 1.76,-4.982 1.76,0.271" style="fill:rgb(4,3,3);fill-rule:nonzero;"/>
                </g>
                <g transform="matrix(1,0,0,1,516.2612,856.0218)">
                    <path d="M0,17.343L0,0L2.379,0L11.076,14.419L11.572,14.419L11.572,0L13.306,0L13.306,17.343L10.952,17.343L2.23,2.897L1.735,2.897L1.735,17.343L0,17.343Z" style="fill:rgb(4,3,3);fill-rule:nonzero;"/>
                </g>
                <g transform="matrix(1,0,0,1,0,649.385)">
                    <rect x="541.45" y="206.636" width="1.735" height="17.343" style="fill:rgb(4,3,3);"/>
                </g>
                <g transform="matrix(1,0,0,1,560.1542,868.4096)">
                    <path d="M0,-7.433L-1.809,-7.433C-1.983,-9.688 -3.891,-11.05 -6.789,-11.05C-9.54,-11.05 -11.25,-9.837 -11.25,-7.905C-11.25,-6.245 -9.986,-5.427 -6.047,-4.535C-2.999,-3.865 0.248,-3.147 0.248,0.198C0.248,3.171 -2.329,5.203 -6.245,5.203C-10.16,5.203 -12.836,3.196 -13.256,0L-11.448,0C-11.25,2.254 -9.242,3.617 -6.171,3.617C-3.271,3.617 -1.512,2.428 -1.512,0.47C-1.512,-1.19 -2.751,-2.032 -6.691,-2.924C-9.738,-3.618 -13.008,-4.336 -13.008,-7.707C-13.008,-10.63 -10.53,-12.636 -6.741,-12.636C-2.973,-12.636 -0.398,-10.63 0,-7.433" style="fill:rgb(4,3,3);fill-rule:nonzero;"/>
                </g>
                <g transform="matrix(1,0,0,1,573.0776,864.9662)">
                    <path d="M0,-0.546L3.865,-0.546C6.963,-0.546 8.004,-1.984 8.004,-4.015C8.004,-6.319 6.691,-7.459 3.865,-7.459L0,-7.459L0,-0.546ZM-1.784,8.399L-1.784,-8.945L3.865,-8.945C7.583,-8.945 9.788,-7.113 9.788,-4.015C9.788,-0.868 7.583,0.94 3.841,0.94L0,0.94L0,8.399L-1.784,8.399Z" style="fill:rgb(4,3,3);fill-rule:nonzero;"/>
                </g>
                <g transform="matrix(1,0,0,1,586.9487,856.0218)">
                    <path d="M0,17.343L0,0L10.282,0L10.282,1.486L1.735,1.486L1.735,7.68L9.54,7.68L9.54,9.166L1.735,9.166L1.735,15.857L10.282,15.857L10.282,17.343L0,17.343Z" style="fill:rgb(4,3,3);fill-rule:nonzero;"/>
                </g>
                <g transform="matrix(1,0,0,1,602.7986,864.9662)">
                    <path d="M0,-0.546L4.806,-0.546C6.713,-0.546 8.027,-2.058 8.027,-4.089C8.027,-6.393 6.317,-7.459 3.766,-7.459L0,-7.459L0,-0.546ZM-1.735,-8.945L4.286,-8.945C7.407,-8.945 9.761,-7.113 9.761,-4.312C9.761,-2.032 8.251,-0.224 6.219,-0.05L6.219,0.446C8.251,0.446 9.539,2.056 9.737,4.633L10.009,8.399L8.275,8.399L8.003,4.211C7.853,1.932 6.937,0.94 4.955,0.94L0,0.94L0,8.399L-1.735,8.399L-1.735,-8.945Z" style="fill:rgb(4,3,3);fill-rule:nonzero;"/>
                </g>
                <g transform="matrix(1,0,0,1,629.4797,868.4096)">
                    <path d="M0,-7.433L-1.809,-7.433C-1.983,-9.688 -3.891,-11.05 -6.789,-11.05C-9.54,-11.05 -11.25,-9.837 -11.25,-7.905C-11.25,-6.245 -9.986,-5.427 -6.047,-4.535C-2.999,-3.865 0.248,-3.147 0.248,0.198C0.248,3.171 -2.329,5.203 -6.245,5.203C-10.16,5.203 -12.836,3.196 -13.256,0L-11.448,0C-11.25,2.254 -9.242,3.617 -6.171,3.617C-3.271,3.617 -1.512,2.428 -1.512,0.47C-1.512,-1.19 -2.751,-2.032 -6.691,-2.924C-9.738,-3.618 -13.008,-4.336 -13.008,-7.707C-13.008,-10.63 -10.53,-12.636 -6.741,-12.636C-2.973,-12.636 -0.398,-10.63 0,-7.433" style="fill:rgb(4,3,3);fill-rule:nonzero;"/>
                </g>
                <g transform="matrix(1,0,0,1,648.0295,864.4212)">
                    <path d="M0,0.519L0,-0.001C0,-4.213 -2.65,-7.062 -6.715,-7.062C-10.753,-7.062 -13.454,-4.213 -13.454,-0.001L-13.454,0.519C-13.454,4.756 -10.753,7.582 -6.715,7.582C-2.65,7.582 0,4.756 0,0.519M1.76,0.271C1.76,5.524 -1.758,9.167 -6.763,9.167C-11.719,9.167 -15.214,5.524 -15.214,0.271C-15.214,-4.982 -11.694,-8.648 -6.715,-8.648C-1.71,-8.648 1.76,-4.982 1.76,0.271" style="fill:rgb(4,3,3);fill-rule:nonzero;"/>
                </g>
                <g transform="matrix(1,0,0,1,653.8676,856.0218)">
                    <path d="M0,17.343L0,0L2.379,0L11.076,14.419L11.572,14.419L11.572,0L13.306,0L13.306,17.343L10.952,17.343L2.23,2.897L1.735,2.897L1.735,17.343L0,17.343Z" style="fill:rgb(4,3,3);fill-rule:nonzero;"/>
                </g>
                <g transform="matrix(1,0,0,1,678.6137,871.9284)">
                    <path d="M0,-14.471L-0.496,-14.471L-3.717,-4.609L3.22,-4.609L0,-14.471ZM-7.533,1.436L-1.636,-15.907L1.138,-15.907L7.035,1.436L5.203,1.436L3.692,-3.173L-4.189,-3.173L-5.699,1.436L-7.533,1.436Z" style="fill:rgb(4,3,3);fill-rule:nonzero;"/>
                </g>
                <g transform="matrix(1,0,0,1,689.5567,856.0218)">
                    <path d="M0,17.343L0,0L1.735,0L1.735,15.857L9.788,15.857L9.788,17.343L0,17.343Z" style="fill:rgb(4,3,3);fill-rule:nonzero;"/>
                </g>
                <g transform="matrix(-1,0,0,1,1076.555,-248.894)">
                    <rect x="536.539" y="465.281" width="3.477" height="398.332" style="fill:rgb(4,3,3);"/>
                </g>
                <g transform="matrix(1,0,0,1,340.5737,211.9138)">
                    <path d="M0,415.657L-3.477,415.657L-3.477,0L395.408,398.885L395.408,4.197L398.885,4.197L398.885,407.278L0,8.393L0,415.657Z" style="fill:rgb(4,3,3);fill-rule:nonzero;"/>
                </g>
                <g transform="matrix(1,0,0,1,538.2787,611.541)">
                    <path d="M0,-391.977C-108.038,-391.977 -195.934,-304.057 -195.934,-195.989C-195.934,-87.92 -108.038,0.001 0,0.001C108.038,0.001 195.934,-87.92 195.934,-195.989C195.934,-304.057 108.038,-391.977 0,-391.977M0,3.477C-109.956,3.477 -199.411,-86.003 -199.411,-195.989C-199.411,-305.975 -109.956,-395.454 0,-395.454C109.955,-395.454 199.41,-305.975 199.41,-195.989C199.41,-86.003 109.955,3.477 0,3.477" style="fill:rgb(4,3,3);fill-rule:nonzero;"/>
                </g>
                <g transform="matrix(1,0,0,1,743.3353,628.2893)">
                    <path d="M0,-421.624L0,0.278L-406.24,-405.962L-406.24,-421.902L-340.741,-356.403L-205.049,-220.729L-11.281,-26.961L-11.281,-421.624L0,-421.624Z" style="fill:rgb(4,3,3);fill-rule:nonzero;"/>
                </g>
            </g>
        </g>
    </g>
</svg>
