<?xml version="1.0" encoding="UTF-8" standalone="no"?>
<!DOCTYPE svg PUBLIC "-//W3C//DTD SVG 1.1//EN" "http://www.w3.org/Graphics/SVG/1.1/DTD/svg11.dtd">
<svg width="100%" height="100%" viewBox="0 0 544 130" version="1.1" xmlns="http://www.w3.org/2000/svg" xmlns:xlink="http://www.w3.org/1999/xlink" xml:space="preserve" xmlns:serif="http://www.serif.com/" style="fill-rule:evenodd;clip-rule:evenodd;stroke-linejoin:round;stroke-miterlimit:2;">
    <g transform="matrix(1,0,0,1,-15.205,-34.867996)">
        <rect x="164.139" y="38.663" width="3.95" height="122.352" style="fill:rgb(28,32,35);fill-rule:nonzero;"/>
        <path d="M315.008,155.241L198.018,38.264L194.644,34.868L194.644,160.656L198.592,160.656L198.592,44.429L315.584,161.406L318.958,164.802L318.958,38.575L315.008,38.575L315.008,155.241Z" style="fill:rgb(28,32,35);fill-rule:nonzero;"/>
        <path d="M345.513,99.834C345.513,133.827 373.155,161.482 407.133,161.482L408.214,161.482L408.214,157.523L407.133,157.523C375.333,157.523 349.461,131.645 349.461,99.834C349.461,68.031 375.333,42.155 407.133,42.155L408.214,42.155L408.214,38.197L407.133,38.197C373.155,38.197 345.513,65.848 345.513,99.834Z" style="fill:rgb(28,32,35);fill-rule:nonzero;"/>
        <path d="M497.008,157.523C465.208,157.523 439.337,131.645 439.337,99.834C439.337,68.031 465.208,42.155 497.008,42.155C528.811,42.155 554.684,68.031 554.684,99.834C554.684,131.645 528.811,157.523 497.008,157.523ZM497.008,38.197C463.03,38.197 435.388,65.848 435.388,99.834C435.388,133.827 463.03,161.482 497.008,161.482C530.989,161.482 558.633,133.827 558.633,99.834C558.633,65.848 530.989,38.197 497.008,38.197Z" style="fill:rgb(28,32,35);fill-rule:nonzero;"/>
        <path d="M133.875,153.696L18.005,37.84L15.205,40.623L134.449,159.86L137.824,163.257L137.824,38.915L133.875,38.915L133.875,153.696Z" style="fill:rgb(28,32,35);fill-rule:nonzero;"/>
    </g>
</svg>
