<?xml version="1.0" encoding="UTF-8" standalone="no"?>
<!DOCTYPE svg PUBLIC "-//W3C//DTD SVG 1.1//EN" "http://www.w3.org/Graphics/SVG/1.1/DTD/svg11.dtd">
<svg width="100%" height="100%" viewBox="0 0 2655 626" version="1.1" xmlns="http://www.w3.org/2000/svg" xmlns:xlink="http://www.w3.org/1999/xlink" xml:space="preserve" xmlns:serif="http://www.serif.com/" style="fill-rule:evenodd;clip-rule:evenodd;stroke-linejoin:round;stroke-miterlimit:2;">
    <g transform="matrix(1,0,0,1,-888.328939,-12812.5)">
        <g id="Page-4" serif:id="Page 4" transform="matrix(2.458333,0,0,0.57963,888.328939,12812.5)">
            <rect x="0" y="0" width="1080" height="1080" style="fill:none;"/>
            <g id="Camada-1" serif:id="Camada 1" transform="matrix(1.694915,0,0,7.188498,-372.610169,-4333.801917)">
                <g transform="matrix(-1,0,0,1,794.331,277.052)">
                    <rect x="395.66" y="331.12" width="3.01" height="140.72" style="fill:#262626;"/>
                </g>
                <g transform="matrix(1,0,0,1,575.2926,604.4372)">
                    <path d="M0,148.18L-140.91,7.26L-140.91,144.02L-143.92,144.02L-143.92,0L-3.01,140.91L-3.01,3.63L0,3.63L0,148.18Z" style="fill:#262626;fill-rule:nonzero;"/>
                </g>
                <g transform="matrix(1,0,0,1,679.3312,607.1712)">
                    <path d="M0,142.71C-39.33,142.71 -71.33,110.7 -71.33,71.35C-71.33,32.01 -39.33,0 0,0L0,3.01C-37.68,3.01 -68.33,33.67 -68.33,71.35C-68.33,109.04 -37.68,139.7 0,139.7L0,142.71Z" style="fill:#262626;fill-rule:nonzero;"/>
                </g>
                <g transform="matrix(1,0,0,1,784.5557,746.871)">
                    <path d="M0,-136.69C-37.68,-136.69 -68.33,-106.03 -68.33,-68.35C-68.33,-30.66 -37.68,0 0,0C37.68,0 68.33,-30.66 68.33,-68.35C68.33,-106.03 37.68,-136.69 0,-136.69M0,3.01C-39.34,3.01 -71.34,-29 -71.34,-68.35C-71.34,-107.69 -39.34,-139.7 0,-139.7C39.33,-139.7 71.33,-107.69 71.33,-68.35C71.33,-29 39.33,3.01 0,3.01" style="fill:#262626;fill-rule:nonzero;"/>
                </g>
                <g transform="matrix(1,0,0,1,363.9357,606.2756)">
                    <path d="M0,145L-142.87,2.13L-140.74,0L-3.01,137.73L-3.01,1.06L0,1.06L0,145Z" style="fill:#262626;fill-rule:nonzero;"/>
                </g>
            </g>
        </g>
    </g>
</svg>
